# Wavefront .OBJ file for tesselated shape: 装配体4-1/装配体3-1/body-1 path: D:\sunjieqiang\MyRobot\body.SLDPRT

g body_1
v 0.000000 0.110300 -0.181362
v 0.000000 0.125000 -0.180000
v 0.450000 0.125000 -0.180000
v 0.000000 0.096101 -0.185402
v 0.450000 0.110300 -0.181362
v 0.000000 0.082885 -0.191983
v 0.450000 0.096101 -0.185402
v 0.000000 0.071104 -0.200879
v 0.450000 0.082885 -0.191983
v 0.000000 0.061159 -0.211789
v 0.450000 0.071104 -0.200879
v 0.000000 0.053387 -0.224341
v 0.450000 0.061159 -0.211789
v 0.000000 0.048054 -0.238107
v 0.450000 0.053387 -0.224341
v 0.000000 0.045341 -0.252619
v 0.450000 0.048054 -0.238107
v 0.000000 0.045341 -0.267381
v 0.450000 0.045341 -0.252619
v 0.000000 0.048054 -0.281893
v 0.450000 0.045341 -0.267381
v 0.000000 0.053387 -0.295659
v 0.450000 0.048054 -0.281893
v 0.000000 0.061159 -0.308211
v 0.450000 0.053387 -0.295659
v 0.000000 0.071104 -0.319121
v 0.450000 0.061159 -0.308211
v 0.000000 0.082885 -0.328017
v 0.450000 0.071104 -0.319121
v 0.000000 0.096101 -0.334598
v 0.450000 0.082885 -0.328017
v 0.000000 0.110300 -0.338638
v 0.450000 0.096101 -0.334598
v 0.000000 0.125000 -0.340000
v 0.450000 0.110300 -0.338638
v 0.000000 0.139700 -0.338638
v 0.450000 0.125000 -0.340000
v 0.000000 0.153899 -0.334598
v 0.450000 0.139700 -0.338638
v 0.000000 0.167115 -0.328017
v 0.450000 0.153899 -0.334598
v 0.000000 0.178896 -0.319121
v 0.450000 0.167115 -0.328017
v 0.000000 0.188841 -0.308211
v 0.450000 0.178896 -0.319121
v 0.000000 0.196613 -0.295659
v 0.450000 0.188841 -0.308211
v 0.000000 0.201946 -0.281893
v 0.450000 0.196613 -0.295659
v 0.000000 0.204659 -0.267381
v 0.450000 0.201946 -0.281893
v 0.000000 0.204659 -0.252619
v 0.450000 0.204659 -0.267381
v 0.000000 0.201946 -0.238107
v 0.450000 0.204659 -0.252619
v 0.000000 0.196613 -0.224341
v 0.450000 0.201946 -0.238107
v 0.000000 0.188841 -0.211789
v 0.450000 0.196613 -0.224341
v 0.000000 0.178896 -0.200879
v 0.450000 0.188841 -0.211789
v 0.000000 0.167115 -0.191983
v 0.450000 0.178896 -0.200879
v 0.000000 0.153899 -0.185402
v 0.450000 0.167115 -0.191983
v 0.000000 0.139700 -0.181362
v 0.450000 0.153899 -0.185402
v 0.450000 0.139700 -0.181362
v 0.450000 0.000000 0.000000
v 0.450000 0.110300 -0.181362
v 0.450000 0.125000 -0.180000
v 0.450000 0.250000 0.000000
v 0.450000 0.167115 -0.191983
v 0.450000 0.178896 -0.200879
v 0.450000 0.139700 -0.181362
v 0.450000 0.096101 -0.185402
v 0.450000 0.250000 -0.520000
v 0.450000 0.167115 -0.328017
v 0.450000 0.153899 -0.334598
v 0.450000 0.188841 -0.308211
v 0.450000 0.178896 -0.319121
v 0.450000 0.153899 -0.185402
v 0.450000 0.201946 -0.281893
v 0.450000 0.196613 -0.295659
v 0.450000 0.204659 -0.252619
v 0.450000 0.048054 -0.238107
v 0.450000 0.053387 -0.224341
v 0.450000 0.204659 -0.267381
v 0.450000 0.196613 -0.224341
v 0.450000 0.201946 -0.238107
v 0.450000 0.082885 -0.191983
v 0.450000 0.061159 -0.211789
v 0.450000 0.071104 -0.200879
v 0.450000 0.045341 -0.252619
v 0.450000 0.000000 -0.520000
v 0.450000 0.045341 -0.267381
v 0.450000 0.071104 -0.319121
v 0.450000 0.061159 -0.308211
v 0.450000 0.096101 -0.334598
v 0.450000 0.082885 -0.328017
v 0.450000 0.188841 -0.211789
v 0.450000 0.053387 -0.295659
v 0.450000 0.048054 -0.281893
v 0.450000 0.139700 -0.338638
v 0.450000 0.110300 -0.338638
v 0.450000 0.125000 -0.340000
v 0.000000 0.250000 -0.520000
v 0.000000 0.204659 -0.267381
v 0.000000 0.204659 -0.252619
v 0.000000 0.201946 -0.281893
v 0.000000 0.188841 -0.308211
v 0.000000 0.196613 -0.295659
v 0.000000 0.167115 -0.328017
v 0.000000 0.178896 -0.319121
v 0.000000 0.139700 -0.338638
v 0.000000 0.153899 -0.334598
v 0.000000 0.000000 -0.520000
v 0.000000 0.125000 -0.340000
v 0.000000 0.071104 -0.319121
v 0.000000 0.082885 -0.328017
v 0.000000 0.053387 -0.295659
v 0.000000 0.061159 -0.308211
v 0.000000 0.000000 0.000000
v 0.000000 0.045341 -0.252619
v 0.000000 0.045341 -0.267381
v 0.000000 0.110300 -0.338638
v 0.000000 0.048054 -0.238107
v 0.000000 0.061159 -0.211789
v 0.000000 0.053387 -0.224341
v 0.000000 0.250000 0.000000
v 0.000000 0.188841 -0.211789
v 0.000000 0.178896 -0.200879
v 0.000000 0.096101 -0.334598
v 0.000000 0.048054 -0.281893
v 0.000000 0.082885 -0.191983
v 0.000000 0.071104 -0.200879
v 0.000000 0.125000 -0.180000
v 0.000000 0.153899 -0.185402
v 0.000000 0.139700 -0.181362
v 0.000000 0.167115 -0.191983
v 0.000000 0.201946 -0.238107
v 0.000000 0.096101 -0.185402
v 0.000000 0.110300 -0.181362
v 0.000000 0.196613 -0.224341
v 0.450000 0.250000 0.000000
v 0.000000 0.250000 0.000000
v 0.000000 0.000000 0.000000
v 0.450000 0.000000 0.000000
v 0.450000 0.000000 0.000000
v 0.000000 0.000000 0.000000
v 0.000000 0.000000 -0.520000
v 0.450000 0.000000 -0.520000
v 0.450000 0.000000 -0.520000
v 0.000000 0.000000 -0.520000
v 0.000000 0.250000 -0.520000
v 0.450000 0.250000 -0.520000
v 0.450000 0.250000 -0.520000
v 0.000000 0.250000 -0.520000
v 0.000000 0.250000 0.000000
v 0.450000 0.250000 0.000000
vn 0.000 0.184 -0.983
vn 0.000 0.000 -1.000
vn 0.000 0.000 -1.000
vn 0.000 0.361 -0.932
vn 0.000 0.184 -0.983
vn 0.000 0.526 -0.850
vn 0.000 0.361 -0.932
vn 0.000 0.674 -0.739
vn 0.000 0.526 -0.850
vn 0.000 0.798 -0.603
vn 0.000 0.674 -0.739
vn 0.000 0.895 -0.446
vn 0.000 0.798 -0.603
vn 0.000 0.962 -0.274
vn 0.000 0.895 -0.446
vn 0.000 0.996 -0.092
vn 0.000 0.962 -0.274
vn 0.000 0.996 0.092
vn 0.000 0.996 -0.092
vn 0.000 0.962 0.274
vn 0.000 0.996 0.092
vn 0.000 0.895 0.446
vn 0.000 0.962 0.274
vn 0.000 0.798 0.603
vn 0.000 0.895 0.446
vn 0.000 0.674 0.739
vn 0.000 0.798 0.603
vn 0.000 0.526 0.850
vn 0.000 0.674 0.739
vn 0.000 0.361 0.932
vn 0.000 0.526 0.850
vn 0.000 0.184 0.983
vn 0.000 0.361 0.932
vn 0.000 0.000 1.000
vn 0.000 0.184 0.983
vn 0.000 -0.184 0.983
vn 0.000 0.000 1.000
vn 0.000 -0.361 0.932
vn 0.000 -0.184 0.983
vn 0.000 -0.526 0.850
vn 0.000 -0.361 0.932
vn 0.000 -0.674 0.739
vn 0.000 -0.526 0.850
vn 0.000 -0.798 0.603
vn 0.000 -0.674 0.739
vn 0.000 -0.895 0.446
vn 0.000 -0.798 0.603
vn 0.000 -0.962 0.274
vn 0.000 -0.895 0.446
vn 0.000 -0.996 0.092
vn 0.000 -0.962 0.274
vn 0.000 -0.996 -0.092
vn 0.000 -0.996 0.092
vn 0.000 -0.962 -0.274
vn 0.000 -0.996 -0.092
vn 0.000 -0.895 -0.446
vn 0.000 -0.962 -0.274
vn 0.000 -0.798 -0.603
vn 0.000 -0.895 -0.446
vn 0.000 -0.674 -0.739
vn 0.000 -0.798 -0.603
vn 0.000 -0.526 -0.850
vn 0.000 -0.674 -0.739
vn 0.000 -0.361 -0.932
vn 0.000 -0.526 -0.850
vn 0.000 -0.184 -0.983
vn 0.000 -0.361 -0.932
vn 0.000 -0.184 -0.983
vn 1.000 0.000 0.000
vn 1.000 0.000 0.000
vn 1.000 0.000 0.000
vn 1.000 0.000 0.000
vn 1.000 0.000 0.000
vn 1.000 0.000 0.000
vn 1.000 0.000 0.000
vn 1.000 0.000 0.000
vn 1.000 0.000 0.000
vn 1.000 0.000 0.000
vn 1.000 0.000 0.000
vn 1.000 0.000 0.000
vn 1.000 0.000 0.000
vn 1.000 0.000 0.000
vn 1.000 0.000 0.000
vn 1.000 0.000 0.000
vn 1.000 0.000 0.000
vn 1.000 0.000 0.000
vn 1.000 0.000 0.000
vn 1.000 0.000 0.000
vn 1.000 0.000 0.000
vn 1.000 0.000 0.000
vn 1.000 0.000 0.000
vn 1.000 0.000 0.000
vn 1.000 0.000 0.000
vn 1.000 0.000 0.000
vn 1.000 0.000 0.000
vn 1.000 0.000 0.000
vn 1.000 0.000 0.000
vn 1.000 0.000 0.000
vn 1.000 0.000 0.000
vn 1.000 0.000 0.000
vn 1.000 0.000 0.000
vn 1.000 0.000 0.000
vn 1.000 0.000 0.000
vn 1.000 0.000 0.000
vn 1.000 0.000 0.000
vn 1.000 0.000 0.000
vn -1.000 0.000 0.000
vn -1.000 0.000 0.000
vn -1.000 0.000 0.000
vn -1.000 0.000 0.000
vn -1.000 0.000 0.000
vn -1.000 0.000 0.000
vn -1.000 0.000 0.000
vn -1.000 0.000 0.000
vn -1.000 0.000 0.000
vn -1.000 0.000 0.000
vn -1.000 0.000 0.000
vn -1.000 0.000 0.000
vn -1.000 0.000 0.000
vn -1.000 0.000 0.000
vn -1.000 0.000 0.000
vn -1.000 0.000 0.000
vn -1.000 0.000 0.000
vn -1.000 0.000 0.000
vn -1.000 0.000 0.000
vn -1.000 0.000 0.000
vn -1.000 0.000 0.000
vn -1.000 0.000 0.000
vn -1.000 0.000 0.000
vn -1.000 0.000 0.000
vn -1.000 0.000 0.000
vn -1.000 0.000 0.000
vn -1.000 0.000 0.000
vn -1.000 0.000 0.000
vn -1.000 0.000 0.000
vn -1.000 0.000 0.000
vn -1.000 0.000 0.000
vn -1.000 0.000 0.000
vn -1.000 0.000 0.000
vn -1.000 0.000 0.000
vn -1.000 0.000 0.000
vn -1.000 0.000 0.000
vn -1.000 0.000 0.000
vn -1.000 0.000 0.000
vn 0.000 0.000 1.000
vn 0.000 0.000 1.000
vn 0.000 0.000 1.000
vn 0.000 0.000 1.000
vn 0.000 -1.000 0.000
vn 0.000 -1.000 0.000
vn 0.000 -1.000 0.000
vn 0.000 -1.000 0.000
vn 0.000 0.000 -1.000
vn 0.000 0.000 -1.000
vn 0.000 0.000 -1.000
vn 0.000 0.000 -1.000
vn 0.000 1.000 0.000
vn 0.000 1.000 0.000
vn 0.000 1.000 0.000
vn 0.000 1.000 0.000
vt -0.1848 0.4500 0
vt 0.0000 0.4500 0
vt 0.0000 0.0000 0
vt 5.9136 0.4500 0
vt -0.1848 0.0000 0
vt 5.7288 0.4500 0
vt 5.9136 0.0000 0
vt 5.5440 0.4500 0
vt 5.7288 0.0000 0
vt 5.3592 0.4500 0
vt 5.5440 0.0000 0
vt 5.1744 0.4500 0
vt 5.3592 0.0000 0
vt 4.9896 0.4500 0
vt 5.1744 0.0000 0
vt 4.8048 0.4500 0
vt 4.9896 0.0000 0
vt 4.6200 0.4500 0
vt 4.8048 0.0000 0
vt 4.4352 0.4500 0
vt 4.6200 0.0000 0
vt 4.2504 0.4500 0
vt 4.4352 0.0000 0
vt 4.0656 0.4500 0
vt 4.2504 0.0000 0
vt 3.8808 0.4500 0
vt 4.0656 0.0000 0
vt 3.6960 0.4500 0
vt 3.8808 0.0000 0
vt 3.5112 0.4500 0
vt 3.6960 0.0000 0
vt 3.3264 0.4500 0
vt 3.5112 0.0000 0
vt 3.1416 0.4500 0
vt 3.3264 0.0000 0
vt 2.9568 0.4500 0
vt 3.1416 0.0000 0
vt 2.7720 0.4500 0
vt 2.9568 0.0000 0
vt 2.5872 0.4500 0
vt 2.7720 0.0000 0
vt 2.4024 0.4500 0
vt 2.5872 0.0000 0
vt 2.2176 0.4500 0
vt 2.4024 0.0000 0
vt 2.0328 0.4500 0
vt 2.2176 0.0000 0
vt 1.8480 0.4500 0
vt 2.0328 0.0000 0
vt 1.6632 0.4500 0
vt 1.8480 0.0000 0
vt 1.4784 0.4500 0
vt 1.6632 0.0000 0
vt 1.2936 0.4500 0
vt 1.4784 0.0000 0
vt 1.1088 0.4500 0
vt 1.2936 0.0000 0
vt 0.9240 0.4500 0
vt 1.1088 0.0000 0
vt 0.7392 0.4500 0
vt 0.9240 0.0000 0
vt 0.5544 0.4500 0
vt 0.7392 0.0000 0
vt 0.3696 0.4500 0
vt 0.5544 0.0000 0
vt 0.1848 0.4500 0
vt 0.3696 0.0000 0
vt 0.1848 0.0000 0
vt 0.0000 0.0000 0
vt -0.1814 0.1103 0
vt -0.1800 0.1250 0
vt 0.0000 0.2500 0
vt -0.1920 0.1671 0
vt -0.2009 0.1789 0
vt -0.1814 0.1397 0
vt -0.1854 0.0961 0
vt -0.5200 0.2500 0
vt -0.3280 0.1671 0
vt -0.3346 0.1539 0
vt -0.3082 0.1888 0
vt -0.3191 0.1789 0
vt -0.1854 0.1539 0
vt -0.2819 0.2019 0
vt -0.2957 0.1966 0
vt -0.2526 0.2047 0
vt -0.2381 0.0481 0
vt -0.2243 0.0534 0
vt -0.2674 0.2047 0
vt -0.2243 0.1966 0
vt -0.2381 0.2019 0
vt -0.1920 0.0829 0
vt -0.2118 0.0612 0
vt -0.2009 0.0711 0
vt -0.2526 0.0453 0
vt -0.5200 0.0000 0
vt -0.2674 0.0453 0
vt -0.3191 0.0711 0
vt -0.3082 0.0612 0
vt -0.3346 0.0961 0
vt -0.3280 0.0829 0
vt -0.2118 0.1888 0
vt -0.2957 0.0534 0
vt -0.2819 0.0481 0
vt -0.3386 0.1397 0
vt -0.3386 0.1103 0
vt -0.3400 0.1250 0
vt -0.5200 0.2500 0
vt -0.2674 0.2047 0
vt -0.2526 0.2047 0
vt -0.2819 0.2019 0
vt -0.3082 0.1888 0
vt -0.2957 0.1966 0
vt -0.3280 0.1671 0
vt -0.3191 0.1789 0
vt -0.3386 0.1397 0
vt -0.3346 0.1539 0
vt -0.5200 0.0000 0
vt -0.3400 0.1250 0
vt -0.3191 0.0711 0
vt -0.3280 0.0829 0
vt -0.2957 0.0534 0
vt -0.3082 0.0612 0
vt 0.0000 0.0000 0
vt -0.2526 0.0453 0
vt -0.2674 0.0453 0
vt -0.3386 0.1103 0
vt -0.2381 0.0481 0
vt -0.2118 0.0612 0
vt -0.2243 0.0534 0
vt 0.0000 0.2500 0
vt -0.2118 0.1888 0
vt -0.2009 0.1789 0
vt -0.3346 0.0961 0
vt -0.2819 0.0481 0
vt -0.1920 0.0829 0
vt -0.2009 0.0711 0
vt -0.1800 0.1250 0
vt -0.1854 0.1539 0
vt -0.1814 0.1397 0
vt -0.1920 0.1671 0
vt -0.2381 0.2019 0
vt -0.1854 0.0961 0
vt -0.1814 0.1103 0
vt -0.2243 0.1966 0
vt 0.2500 0.0000 0
vt 0.2500 -0.4500 0
vt 0.0000 -0.4500 0
vt 0.0000 0.0000 0
vt 0.0000 0.0000 0
vt 0.0000 -0.4500 0
vt -0.5200 -0.4500 0
vt -0.5200 0.0000 0
vt 0.0000 0.0000 0
vt 0.0000 -0.4500 0
vt -0.2500 -0.4500 0
vt -0.2500 0.0000 0
vt 0.5200 0.0000 0
vt 0.5200 -0.4500 0
vt 0.0000 -0.4500 0
vt 0.0000 0.0000 0
f 77/77/77 81/81/81 78/78/78
f 69/69/69 71/71/71 72/72/72
f 73/73/73 72/72/72 82/82/82
f 81/81/81 77/77/77 80/80/80
f 79/79/79 77/77/77 78/78/78
f 70/70/70 69/69/69 76/76/76
f 75/75/75 72/72/72 71/71/71
f 74/74/74 72/72/72 73/73/73
f 71/71/71 69/69/69 70/70/70
f 85/85/85 77/77/77 72/72/72
f 72/72/72 75/75/75 82/82/82
f 87/87/87 69/69/69 86/86/86
f 77/77/77 84/84/84 80/80/80
f 77/77/77 85/85/85 88/88/88
f 90/90/90 72/72/72 89/89/89
f 76/76/76 69/69/69 91/91/91
f 93/93/93 69/69/69 92/92/92
f 86/86/86 69/69/69 94/94/94
f 96/96/96 69/69/69 95/95/95
f 98/98/98 95/95/95 97/97/97
f 100/100/100 95/95/95 99/99/99
f 77/77/77 88/88/88 83/83/83
f 89/89/89 72/72/72 101/101/101
f 69/69/69 93/93/93 91/91/91
f 69/69/69 96/96/96 94/94/94
f 103/103/103 95/95/95 102/102/102
f 95/95/95 100/100/100 97/97/97
f 77/77/77 79/79/79 104/104/104
f 72/72/72 74/74/74 101/101/101
f 95/95/95 103/103/103 96/96/96
f 99/99/99 95/95/95 105/105/105
f 72/72/72 90/90/90 85/85/85
f 95/95/95 98/98/98 102/102/102
f 69/69/69 87/87/87 92/92/92
f 106/106/106 95/95/95 77/77/77
f 95/95/95 106/106/106 105/105/105
f 77/77/77 104/104/104 106/106/106
f 84/84/84 77/77/77 83/83/83
f 108/108/108 107/107/107 110/110/110
f 112/112/112 107/107/107 111/111/111
f 107/107/107 112/112/112 110/110/110
f 114/114/114 107/107/107 113/113/113
f 107/107/107 114/114/114 111/111/111
f 116/116/116 107/107/107 115/115/115
f 118/118/118 107/107/107 117/117/117
f 120/120/120 117/117/117 119/119/119
f 122/122/122 117/117/117 121/121/121
f 125/125/125 123/123/123 124/124/124
f 107/107/107 116/116/116 113/113/113
f 118/118/118 117/117/117 126/126/126
f 117/117/117 122/122/122 119/119/119
f 124/124/124 123/123/123 127/127/127
f 129/129/129 123/123/123 128/128/128
f 132/132/132 130/130/130 131/131/131
f 107/107/107 118/118/118 115/115/115
f 117/117/117 120/120/120 133/133/133
f 134/134/134 117/117/117 125/125/125
f 123/123/123 129/129/129 127/127/127
f 136/136/136 123/123/123 135/135/135
f 137/137/137 123/123/123 130/130/130
f 139/139/139 130/130/130 138/138/138
f 130/130/130 132/132/132 140/140/140
f 141/141/141 130/130/130 109/109/109
f 117/117/117 133/133/133 126/126/126
f 123/123/123 125/125/125 117/117/117
f 135/135/135 123/123/123 142/142/142
f 123/123/123 137/137/137 143/143/143
f 130/130/130 140/140/140 138/138/138
f 130/130/130 141/141/141 144/144/144
f 117/117/117 134/134/134 121/121/121
f 123/123/123 143/143/143 142/142/142
f 130/130/130 144/144/144 131/131/131
f 123/123/123 136/136/136 128/128/128
f 107/107/107 109/109/109 130/130/130
f 130/130/130 139/139/139 137/137/137
f 109/109/109 107/107/107 108/108/108
f 145/145/145 147/147/147 148/148/148
f 147/147/147 145/145/145 146/146/146
f 149/149/149 151/151/151 152/152/152
f 151/151/151 149/149/149 150/150/150
f 153/153/153 155/155/155 156/156/156
f 155/155/155 153/153/153 154/154/154
f 157/157/157 159/159/159 160/160/160
f 159/159/159 157/157/157 158/158/158
f 14/14/14 15/15/15 17/17/17
f 16/16/16 17/17/17 19/19/19
f 18/18/18 19/19/19 21/21/21
f 20/20/20 21/21/21 23/23/23
f 22/22/22 23/23/23 25/25/25
f 24/24/24 25/25/25 27/27/27
f 26/26/26 27/27/27 29/29/29
f 28/28/28 29/29/29 31/31/31
f 30/30/30 31/31/31 33/33/33
f 32/32/32 33/33/33 35/35/35
f 34/34/34 35/35/35 37/37/37
f 36/36/36 37/37/37 39/39/39
f 38/38/38 39/39/39 41/41/41
f 40/40/40 41/41/41 43/43/43
f 42/42/42 43/43/43 45/45/45
f 44/44/44 45/45/45 47/47/47
f 46/46/46 47/47/47 49/49/49
f 48/48/48 49/49/49 51/51/51
f 50/50/50 51/51/51 53/53/53
f 52/52/52 53/53/53 55/55/55
f 54/54/54 55/55/55 57/57/57
f 56/56/56 57/57/57 59/59/59
f 58/58/58 59/59/59 61/61/61
f 60/60/60 61/61/61 63/63/63
f 62/62/62 63/63/63 65/65/65
f 64/64/64 65/65/65 67/67/67
f 66/66/66 67/67/67 68/68/68
f 2/2/2 68/68/68 3/3/3
f 68/68/68 2/2/2 66/66/66
f 12/12/12 13/13/13 15/15/15
f 65/65/65 64/64/64 62/62/62
f 63/63/63 62/62/62 60/60/60
f 61/61/61 60/60/60 58/58/58
f 59/59/59 58/58/58 56/56/56
f 57/57/57 56/56/56 54/54/54
f 55/55/55 54/54/54 52/52/52
f 53/53/53 52/52/52 50/50/50
f 51/51/51 50/50/50 48/48/48
f 49/49/49 48/48/48 46/46/46
f 47/47/47 46/46/46 44/44/44
f 45/45/45 44/44/44 42/42/42
f 43/43/43 42/42/42 40/40/40
f 41/41/41 40/40/40 38/38/38
f 39/39/39 38/38/38 36/36/36
f 37/37/37 36/36/36 34/34/34
f 35/35/35 34/34/34 32/32/32
f 33/33/33 32/32/32 30/30/30
f 31/31/31 30/30/30 28/28/28
f 29/29/29 28/28/28 26/26/26
f 27/27/27 26/26/26 24/24/24
f 25/25/25 24/24/24 22/22/22
f 23/23/23 22/22/22 20/20/20
f 21/21/21 20/20/20 18/18/18
f 19/19/19 18/18/18 16/16/16
f 17/17/17 16/16/16 14/14/14
f 15/15/15 14/14/14 12/12/12
f 13/13/13 12/12/12 10/10/10
f 11/11/11 10/10/10 8/8/8
f 9/9/9 8/8/8 6/6/6
f 7/7/7 6/6/6 4/4/4
f 8/8/8 9/9/9 11/11/11
f 10/10/10 11/11/11 13/13/13
f 4/4/4 5/5/5 7/7/7
f 6/6/6 7/7/7 9/9/9
f 67/67/67 66/66/66 64/64/64
f 1/1/1 3/3/3 5/5/5
f 5/5/5 4/4/4 1/1/1
f 3/3/3 1/1/1 2/2/2
